# xmcd
#
# Track frame offsets: 
#        150
#        1719
#        22606
#        42257
#        62154
#        80704
#        100468
#        115874
#        117638
#        138623
#        152469
#        166445
#        186256
#        200666
#        212432
#        230597
#
# Disc length: 3113 seconds
#
# Revision: 0
# Processed by: cddbd v1.5.2PL0 Copyright (c) Steve Scherf et al.
# Submitted via: ExactAudioCopyFreeDBPlugin 1.0
#
DISCID=d60c2710
DTITLE=India.Arie - Worthy
DYEAR=2019
DGENRE=Soul
TTITLE0=Worthy (Intro)
TTITLE1=What if
TTITLE2=Steady love
TTITLE3=Rollercoaster
TTITLE4=In good trouble
TTITLE5=Crazy
TTITLE6=Hour of love
TTITLE7=Worthy (Interlude)
TTITLE8=That magic
TTITLE9=Follow the sun
TTITLE10=We are
TTITLE11=Coulda shoulda woulda
TTITLE12=Prayer for humanity
TTITLE13=Worthy
TTITLE14=Sacred space
TTITLE15=Worthy (Outro)
EXTD=
EXTT0=
EXTT1=
EXTT2=
EXTT3=
EXTT4=
EXTT5=
EXTT6=
EXTT7=
EXTT8=
EXTT9=
EXTT10=
EXTT11=
EXTT12=
EXTT13=
EXTT14=
EXTT15=
PLAYORDER=
